M48
;Layer_Color=9474304
;FILE_FORMAT=4:4
METRIC,LZ
;TYPE=PLATED
T02F00S00C0.6000
;TYPE=NON_PLATED
%
G90
G05
T02
G00X0027667Y0038223
M15
G01X0028467
M16
G00X0031697Y0038223
M15
G01X0032797
M16
G00X0040047Y0038227
M15
G01X0038947
M16
G00X0040047Y0029587
M15
G01X0038947
M16
G00X0044077Y0029587
M15
G01X0043277
M16
G00X0044077Y0038227
M15
G01X0043277
M16
G00X0044077Y0046957
M15
G01X0043277
M16
G00X0044077Y0055597
M15
G01X0043277
M16
G00X0040047Y0055597
M15
G01X0038947
M16
G00X0040047Y0046957
M15
G01X0038947
M16
G00X0031697Y0046863
M15
G01X0032797
M16
G00X0027667Y0046863
M15
G01X0028467
M16
M17
M30
