G04*
G04 #@! TF.GenerationSoftware,Altium Limited,Altium Designer,25.6.2 (33)*
G04*
G04 Layer_Color=8388736*
%FSLAX44Y44*%
%MOMM*%
G71*
G04*
G04 #@! TF.SameCoordinates,9BB86C1C-490A-4274-8EA7-9D778CBDAB0B*
G04*
G04*
G04 #@! TF.FilePolarity,Negative*
G04*
G01*
G75*
%ADD14R,1.3532X0.5032*%
%ADD15R,1.3532X0.8032*%
%ADD16C,0.8532*%
%ADD17O,2.3032X1.2032*%
G04:AMPARAMS|DCode=18|XSize=2.0032mm|YSize=1.2032mm|CornerRadius=0.3516mm|HoleSize=0mm|Usage=FLASHONLY|Rotation=180.000|XOffset=0mm|YOffset=0mm|HoleType=Round|Shape=RoundedRectangle|*
%AMROUNDEDRECTD18*
21,1,2.0032,0.5000,0,0,180.0*
21,1,1.3000,1.2032,0,0,180.0*
1,1,0.7032,-0.6500,0.2500*
1,1,0.7032,0.6500,0.2500*
1,1,0.7032,0.6500,-0.2500*
1,1,0.7032,-0.6500,-0.2500*
%
%ADD18ROUNDEDRECTD18*%
%ADD19C,0.8032*%
%ADD20C,0.9032*%
D14*
X389220Y321570D02*
D03*
Y326570D02*
D03*
Y331570D02*
D03*
Y356570D02*
D03*
Y351570D02*
D03*
Y346570D02*
D03*
Y336570D02*
D03*
Y341570D02*
D03*
Y495270D02*
D03*
Y500270D02*
D03*
Y505270D02*
D03*
Y530270D02*
D03*
Y525270D02*
D03*
Y520270D02*
D03*
Y510270D02*
D03*
Y515270D02*
D03*
X328220Y442930D02*
D03*
Y437930D02*
D03*
Y432930D02*
D03*
Y407930D02*
D03*
Y412930D02*
D03*
Y417930D02*
D03*
Y427930D02*
D03*
Y422930D02*
D03*
D15*
X389220Y363070D02*
D03*
Y315070D02*
D03*
Y371070D02*
D03*
Y307070D02*
D03*
Y536770D02*
D03*
Y488770D02*
D03*
Y544770D02*
D03*
Y480770D02*
D03*
X328220Y401430D02*
D03*
Y449430D02*
D03*
Y393430D02*
D03*
Y457430D02*
D03*
D16*
X399970Y310170D02*
D03*
Y367970D02*
D03*
Y483870D02*
D03*
Y541670D02*
D03*
X317470Y454330D02*
D03*
Y396530D02*
D03*
D17*
X394970Y382270D02*
D03*
Y295870D02*
D03*
Y555970D02*
D03*
Y469570D02*
D03*
X322470Y382230D02*
D03*
Y468630D02*
D03*
D18*
X436770Y382270D02*
D03*
Y295870D02*
D03*
Y555970D02*
D03*
Y469570D02*
D03*
X280670Y382230D02*
D03*
Y468630D02*
D03*
D19*
X342900Y416560D02*
D03*
X340360Y434340D02*
D03*
X369570Y328930D02*
D03*
X377190Y345440D02*
D03*
D20*
X370840Y307340D02*
D03*
X374650Y370840D02*
D03*
X370840Y542290D02*
D03*
X373380Y476250D02*
D03*
X346710Y462280D02*
D03*
X347980Y388620D02*
D03*
X350520Y401320D02*
D03*
X359410Y455930D02*
D03*
M02*
