G04*
G04 #@! TF.GenerationSoftware,Altium Limited,Altium Designer,25.6.2 (33)*
G04*
G04 Layer_Physical_Order=2*
G04 Layer_Color=16711680*
%FSLAX44Y44*%
%MOMM*%
G71*
G04*
G04 #@! TF.SameCoordinates,9BB86C1C-490A-4274-8EA7-9D778CBDAB0B*
G04*
G04*
G04 #@! TF.FilePolarity,Positive*
G04*
G01*
G75*
%ADD11C,0.2540*%
%ADD21C,0.6350*%
%ADD23C,0.6500*%
%ADD24O,2.1000X1.0000*%
G04:AMPARAMS|DCode=25|XSize=1.8mm|YSize=1mm|CornerRadius=0.25mm|HoleSize=0mm|Usage=FLASHONLY|Rotation=180.000|XOffset=0mm|YOffset=0mm|HoleType=Round|Shape=RoundedRectangle|*
%AMROUNDEDRECTD25*
21,1,1.8000,0.5000,0,0,180.0*
21,1,1.3000,1.0000,0,0,180.0*
1,1,0.5000,-0.6500,0.2500*
1,1,0.5000,0.6500,0.2500*
1,1,0.5000,0.6500,-0.2500*
1,1,0.5000,-0.6500,-0.2500*
%
%ADD25ROUNDEDRECTD25*%
%ADD26C,0.6000*%
%ADD27C,0.7000*%
G36*
X451057Y563547D02*
X452636Y562893D01*
X454056Y561944D01*
X459214Y556786D01*
X459641Y556359D01*
X460312Y555355D01*
X460774Y554239D01*
X461010Y553054D01*
Y552450D01*
Y296436D01*
Y296009D01*
X460843Y295171D01*
X460517Y294382D01*
X460042Y293672D01*
X458834Y292464D01*
X456703Y291040D01*
X454336Y290060D01*
X451823Y289560D01*
X449841D01*
X449289Y290117D01*
X448156Y292100D01*
X448409Y293370D01*
Y294600D01*
X436770D01*
X425131D01*
Y293370D01*
X425384Y292100D01*
X424250Y290117D01*
X423699Y289560D01*
X408334D01*
X407056Y292068D01*
X407816Y293902D01*
X407908Y294600D01*
X394970D01*
X382032D01*
X382124Y293902D01*
X382884Y292068D01*
X381606Y289560D01*
X357269D01*
X352362Y290536D01*
X347740Y292451D01*
X343579Y295231D01*
X341810Y296999D01*
X287020Y351790D01*
X269240Y370840D01*
X257810Y382270D01*
Y468630D01*
X345620Y556441D01*
X347389Y558209D01*
X351550Y560989D01*
X356172Y562904D01*
X361079Y563880D01*
X383220D01*
X384092Y561348D01*
X382884Y559772D01*
X382124Y557938D01*
X382032Y557240D01*
X394970D01*
X407908D01*
X407816Y557938D01*
X407056Y559772D01*
X405848Y561348D01*
X406720Y563880D01*
X425001D01*
X425129Y563741D01*
X426126Y561340D01*
X425522Y560437D01*
X425131Y558470D01*
Y557240D01*
X436770D01*
X448409D01*
Y558470D01*
X448018Y560437D01*
X447414Y561340D01*
X448411Y563741D01*
X448539Y563880D01*
X449382D01*
X451057Y563547D01*
D02*
G37*
%LPC*%
G36*
X393700Y554700D02*
X382032D01*
X382124Y554002D01*
X382884Y552168D01*
X384092Y550592D01*
X385667Y549384D01*
X387502Y548624D01*
X389470Y548365D01*
X393700D01*
Y554700D01*
D02*
G37*
G36*
X448409D02*
X438040D01*
Y548331D01*
X443270D01*
X445237Y548722D01*
X446904Y549836D01*
X448018Y551503D01*
X448409Y553470D01*
Y554700D01*
D02*
G37*
G36*
X435500D02*
X425131D01*
Y553470D01*
X425522Y551503D01*
X426636Y549836D01*
X428303Y548722D01*
X430270Y548331D01*
X435500D01*
Y554700D01*
D02*
G37*
G36*
X372110Y548302D02*
Y543560D01*
X376852D01*
X375961Y545711D01*
X374261Y547411D01*
X372110Y548302D01*
D02*
G37*
G36*
X369570D02*
X367419Y547411D01*
X365719Y545711D01*
X364828Y543560D01*
X369570D01*
Y548302D01*
D02*
G37*
G36*
X407908Y554700D02*
X396240D01*
Y548365D01*
X397684D01*
X398190Y545825D01*
X397410Y545502D01*
X396138Y544230D01*
X395450Y542569D01*
Y540771D01*
X396138Y539110D01*
X397410Y537838D01*
X399071Y537150D01*
X400869D01*
X402530Y537838D01*
X403802Y539110D01*
X404490Y540771D01*
Y542569D01*
X403802Y544230D01*
X402530Y545502D01*
X401482Y545936D01*
X401774Y548537D01*
X402438Y548624D01*
X404272Y549384D01*
X405848Y550592D01*
X407056Y552168D01*
X407816Y554002D01*
X407908Y554700D01*
D02*
G37*
G36*
X376852Y541020D02*
X372110D01*
Y536278D01*
X374261Y537169D01*
X375961Y538869D01*
X376852Y541020D01*
D02*
G37*
G36*
X369570D02*
X364828D01*
X365719Y538869D01*
X367419Y537169D01*
X369570Y536278D01*
Y541020D01*
D02*
G37*
G36*
X374650Y482262D02*
Y477520D01*
X379392D01*
X378501Y479671D01*
X376801Y481371D01*
X374650Y482262D01*
D02*
G37*
G36*
X372110D02*
X369959Y481371D01*
X368260Y479671D01*
X367368Y477520D01*
X372110D01*
Y482262D01*
D02*
G37*
G36*
X400869Y488390D02*
X399071D01*
X397410Y487702D01*
X396138Y486430D01*
X395450Y484769D01*
Y482971D01*
X396138Y481310D01*
X397410Y480038D01*
X398190Y479715D01*
X397684Y477175D01*
X396240D01*
Y470840D01*
X407908D01*
X407816Y471538D01*
X407056Y473372D01*
X405848Y474948D01*
X404272Y476156D01*
X402438Y476916D01*
X401774Y477003D01*
X401482Y479604D01*
X402530Y480038D01*
X403802Y481310D01*
X404490Y482971D01*
Y484769D01*
X403802Y486430D01*
X402530Y487702D01*
X400869Y488390D01*
D02*
G37*
G36*
X443270Y477209D02*
X438040D01*
Y470840D01*
X448409D01*
Y472070D01*
X448018Y474036D01*
X446904Y475704D01*
X445237Y476818D01*
X443270Y477209D01*
D02*
G37*
G36*
X435500D02*
X430270D01*
X428303Y476818D01*
X426636Y475704D01*
X425522Y474036D01*
X425131Y472070D01*
Y470840D01*
X435500D01*
Y477209D01*
D02*
G37*
G36*
X393700Y477175D02*
X389470D01*
X387502Y476916D01*
X385667Y476156D01*
X384092Y474948D01*
X382884Y473372D01*
X382124Y471538D01*
X382032Y470840D01*
X393700D01*
Y477175D01*
D02*
G37*
G36*
X379392Y474980D02*
X374650D01*
Y470238D01*
X376801Y471129D01*
X378501Y472829D01*
X379392Y474980D01*
D02*
G37*
G36*
X372110D02*
X367368D01*
X368260Y472829D01*
X369959Y471129D01*
X372110Y470238D01*
Y474980D01*
D02*
G37*
G36*
X327970Y476235D02*
X323740D01*
Y469900D01*
X335408D01*
X335316Y470598D01*
X334556Y472433D01*
X333348Y474008D01*
X331772Y475216D01*
X329938Y475976D01*
X327970Y476235D01*
D02*
G37*
G36*
X321200D02*
X316970D01*
X315002Y475976D01*
X313167Y475216D01*
X311592Y474008D01*
X310384Y472433D01*
X309624Y470598D01*
X309532Y469900D01*
X321200D01*
Y476235D01*
D02*
G37*
G36*
X287170Y476269D02*
X281940D01*
Y469900D01*
X292309D01*
Y471130D01*
X291918Y473097D01*
X290804Y474764D01*
X289137Y475878D01*
X287170Y476269D01*
D02*
G37*
G36*
X279400D02*
X274170D01*
X272204Y475878D01*
X270536Y474764D01*
X269422Y473097D01*
X269031Y471130D01*
Y469900D01*
X279400D01*
Y476269D01*
D02*
G37*
G36*
X347980Y468292D02*
Y463550D01*
X352722D01*
X351830Y465701D01*
X350131Y467401D01*
X347980Y468292D01*
D02*
G37*
G36*
X345440D02*
X343289Y467401D01*
X341590Y465701D01*
X340698Y463550D01*
X345440D01*
Y468292D01*
D02*
G37*
G36*
X407908Y468300D02*
X396240D01*
Y461965D01*
X400470D01*
X402438Y462224D01*
X404272Y462984D01*
X405848Y464192D01*
X407056Y465768D01*
X407816Y467602D01*
X407908Y468300D01*
D02*
G37*
G36*
X393700D02*
X382032D01*
X382124Y467602D01*
X382884Y465768D01*
X384092Y464192D01*
X385667Y462984D01*
X387502Y462224D01*
X389470Y461965D01*
X393700D01*
Y468300D01*
D02*
G37*
G36*
X448409D02*
X438040D01*
Y461931D01*
X443270D01*
X445237Y462322D01*
X446904Y463436D01*
X448018Y465103D01*
X448409Y467070D01*
Y468300D01*
D02*
G37*
G36*
X435500D02*
X425131D01*
Y467070D01*
X425522Y465103D01*
X426636Y463436D01*
X428303Y462322D01*
X430270Y461931D01*
X435500D01*
Y468300D01*
D02*
G37*
G36*
X335408Y467360D02*
X323740D01*
Y461025D01*
X327970D01*
X329938Y461284D01*
X331772Y462044D01*
X333348Y463252D01*
X334556Y464827D01*
X335316Y466662D01*
X335408Y467360D01*
D02*
G37*
G36*
X292309D02*
X281940D01*
Y460991D01*
X287170D01*
X289137Y461382D01*
X290804Y462496D01*
X291918Y464164D01*
X292309Y466130D01*
Y467360D01*
D02*
G37*
G36*
X279400D02*
X269031D01*
Y466130D01*
X269422Y464164D01*
X270536Y462496D01*
X272204Y461382D01*
X274170Y460991D01*
X279400D01*
Y467360D01*
D02*
G37*
G36*
X352722Y461010D02*
X347980D01*
Y456268D01*
X350131Y457160D01*
X351830Y458859D01*
X352722Y461010D01*
D02*
G37*
G36*
X345440D02*
X340698D01*
X341590Y458859D01*
X343289Y457160D01*
X345440Y456268D01*
Y461010D01*
D02*
G37*
G36*
X321200Y467360D02*
X309532D01*
X309624Y466662D01*
X310384Y464827D01*
X311592Y463252D01*
X313167Y462044D01*
X315002Y461284D01*
X315666Y461197D01*
X315958Y458596D01*
X314910Y458162D01*
X313638Y456890D01*
X312950Y455229D01*
Y453431D01*
X313638Y451770D01*
X314910Y450498D01*
X316571Y449810D01*
X318369D01*
X320030Y450498D01*
X321302Y451770D01*
X321990Y453431D01*
Y455229D01*
X321302Y456890D01*
X320030Y458162D01*
X319251Y458485D01*
X319756Y461025D01*
X321200D01*
Y467360D01*
D02*
G37*
G36*
X341209Y438610D02*
X339511D01*
X337941Y437960D01*
X336740Y436759D01*
X336090Y435189D01*
Y433491D01*
X336740Y431921D01*
X337770Y430891D01*
Y420036D01*
X337967Y419045D01*
X338529Y418205D01*
X338833Y417900D01*
X338630Y417409D01*
Y415711D01*
X339280Y414141D01*
X340481Y412940D01*
X342051Y412290D01*
X343749D01*
X345319Y412940D01*
X346520Y414141D01*
X347170Y415711D01*
Y417409D01*
X346520Y418979D01*
X345319Y420180D01*
X343749Y420830D01*
X343229D01*
X342950Y421109D01*
Y430891D01*
X343980Y431921D01*
X344630Y433491D01*
Y435189D01*
X343980Y436759D01*
X342779Y437960D01*
X341209Y438610D01*
D02*
G37*
G36*
X360359Y460700D02*
X358461D01*
X356708Y459974D01*
X355366Y458632D01*
X354640Y456879D01*
Y454981D01*
X354878Y454407D01*
Y412263D01*
X348092Y405477D01*
X347818Y405364D01*
X346476Y404022D01*
X345750Y402269D01*
Y400371D01*
X346476Y398618D01*
X347818Y397276D01*
X348002Y397200D01*
X347497Y394660D01*
X346779D01*
X344559Y393741D01*
X342859Y392041D01*
X341968Y389890D01*
X353992D01*
X353101Y392041D01*
X351401Y393741D01*
X350751Y394010D01*
X351256Y396550D01*
X351469D01*
X353222Y397276D01*
X354564Y398618D01*
X354926Y399493D01*
X362615Y407181D01*
X362615Y407181D01*
X363597Y408652D01*
X363942Y410386D01*
X363942Y410386D01*
Y454407D01*
X364180Y454981D01*
Y456879D01*
X363454Y458632D01*
X362112Y459974D01*
X360359Y460700D01*
D02*
G37*
G36*
X400470Y389875D02*
X396240D01*
Y383540D01*
X407908D01*
X407816Y384238D01*
X407056Y386073D01*
X405848Y387648D01*
X404272Y388856D01*
X402438Y389616D01*
X400470Y389875D01*
D02*
G37*
G36*
X443270Y389909D02*
X438040D01*
Y383540D01*
X448409D01*
Y384770D01*
X448018Y386736D01*
X446904Y388404D01*
X445237Y389518D01*
X443270Y389909D01*
D02*
G37*
G36*
X435500D02*
X430270D01*
X428303Y389518D01*
X426636Y388404D01*
X425522Y386736D01*
X425131Y384770D01*
Y383540D01*
X435500D01*
Y389909D01*
D02*
G37*
G36*
X393700Y389875D02*
X389470D01*
X387502Y389616D01*
X385667Y388856D01*
X384092Y387648D01*
X382884Y386073D01*
X382124Y384238D01*
X382032Y383540D01*
X393700D01*
Y389875D01*
D02*
G37*
G36*
X327970Y389835D02*
X323740D01*
Y383500D01*
X335408D01*
X335316Y384198D01*
X334556Y386033D01*
X333348Y387608D01*
X331772Y388816D01*
X329938Y389576D01*
X327970Y389835D01*
D02*
G37*
G36*
X318369Y401050D02*
X316571D01*
X314910Y400362D01*
X313638Y399090D01*
X312950Y397429D01*
Y395631D01*
X313638Y393970D01*
X314910Y392698D01*
X315958Y392264D01*
X315666Y389663D01*
X315002Y389576D01*
X313167Y388816D01*
X311592Y387608D01*
X310384Y386033D01*
X309624Y384198D01*
X309532Y383500D01*
X321200D01*
Y389835D01*
X319756D01*
X319251Y392375D01*
X320030Y392698D01*
X321302Y393970D01*
X321990Y395631D01*
Y397429D01*
X321302Y399090D01*
X320030Y400362D01*
X318369Y401050D01*
D02*
G37*
G36*
X287170Y389869D02*
X281940D01*
Y383500D01*
X292309D01*
Y384730D01*
X291918Y386697D01*
X290804Y388364D01*
X289137Y389478D01*
X287170Y389869D01*
D02*
G37*
G36*
X279400D02*
X274170D01*
X272204Y389478D01*
X270536Y388364D01*
X269422Y386697D01*
X269031Y384730D01*
Y383500D01*
X279400D01*
Y389869D01*
D02*
G37*
G36*
X353992Y387350D02*
X349250D01*
Y382608D01*
X351401Y383499D01*
X353101Y385199D01*
X353992Y387350D01*
D02*
G37*
G36*
X346710D02*
X341968D01*
X342859Y385199D01*
X344559Y383499D01*
X346710Y382608D01*
Y387350D01*
D02*
G37*
G36*
X393700Y381000D02*
X382032D01*
X382124Y380302D01*
X382884Y378467D01*
X384092Y376892D01*
X385667Y375684D01*
X387502Y374924D01*
X389470Y374665D01*
X393700D01*
Y381000D01*
D02*
G37*
G36*
X448409D02*
X438040D01*
Y374631D01*
X443270D01*
X445237Y375022D01*
X446904Y376136D01*
X448018Y377803D01*
X448409Y379770D01*
Y381000D01*
D02*
G37*
G36*
X435500D02*
X425131D01*
Y379770D01*
X425522Y377803D01*
X426636Y376136D01*
X428303Y375022D01*
X430270Y374631D01*
X435500D01*
Y381000D01*
D02*
G37*
G36*
X335408Y380960D02*
X323740D01*
Y374625D01*
X327970D01*
X329938Y374884D01*
X331772Y375644D01*
X333348Y376852D01*
X334556Y378428D01*
X335316Y380262D01*
X335408Y380960D01*
D02*
G37*
G36*
X321200D02*
X309532D01*
X309624Y380262D01*
X310384Y378428D01*
X311592Y376852D01*
X313167Y375644D01*
X315002Y374884D01*
X316970Y374625D01*
X321200D01*
Y380960D01*
D02*
G37*
G36*
X292309D02*
X281940D01*
Y374591D01*
X287170D01*
X289137Y374982D01*
X290804Y376096D01*
X291918Y377763D01*
X292309Y379730D01*
Y380960D01*
D02*
G37*
G36*
X279400D02*
X269031D01*
Y379730D01*
X269422Y377763D01*
X270536Y376096D01*
X272204Y374982D01*
X274170Y374591D01*
X279400D01*
Y380960D01*
D02*
G37*
G36*
X375920Y376852D02*
Y372110D01*
X380662D01*
X379771Y374261D01*
X378071Y375961D01*
X375920Y376852D01*
D02*
G37*
G36*
X373380D02*
X371229Y375961D01*
X369529Y374261D01*
X368638Y372110D01*
X373380D01*
Y376852D01*
D02*
G37*
G36*
X380662Y369570D02*
X375920D01*
Y364828D01*
X378071Y365719D01*
X379771Y367419D01*
X380662Y369570D01*
D02*
G37*
G36*
X373380D02*
X368638D01*
X369529Y367419D01*
X371229Y365719D01*
X373380Y364828D01*
Y369570D01*
D02*
G37*
G36*
X407908Y381000D02*
X396240D01*
Y374665D01*
X397684D01*
X398190Y372125D01*
X397410Y371802D01*
X396138Y370530D01*
X395450Y368869D01*
Y367071D01*
X396138Y365410D01*
X397410Y364138D01*
X399071Y363450D01*
X400869D01*
X402530Y364138D01*
X403802Y365410D01*
X404490Y367071D01*
Y368869D01*
X403802Y370530D01*
X402530Y371802D01*
X401482Y372236D01*
X401774Y374837D01*
X402438Y374924D01*
X404272Y375684D01*
X405848Y376892D01*
X407056Y378467D01*
X407816Y380302D01*
X407908Y381000D01*
D02*
G37*
G36*
X378039Y349710D02*
X376341D01*
X374771Y349060D01*
X373570Y347859D01*
X372920Y346289D01*
Y344591D01*
X373570Y343021D01*
X374600Y341991D01*
Y337623D01*
X370177Y333200D01*
X368721D01*
X367151Y332550D01*
X365950Y331349D01*
X365300Y329779D01*
Y328081D01*
X365950Y326511D01*
X367151Y325310D01*
X368721Y324660D01*
X370419D01*
X371989Y325310D01*
X373190Y326511D01*
X373840Y328081D01*
Y329538D01*
X379021Y334719D01*
X379583Y335559D01*
X379780Y336550D01*
Y341991D01*
X380810Y343021D01*
X381460Y344591D01*
Y346289D01*
X380810Y347859D01*
X379609Y349060D01*
X378039Y349710D01*
D02*
G37*
G36*
X372110Y313352D02*
Y308610D01*
X376852D01*
X375961Y310761D01*
X374261Y312460D01*
X372110Y313352D01*
D02*
G37*
G36*
X369570D02*
X367419Y312460D01*
X365719Y310761D01*
X364828Y308610D01*
X369570D01*
Y313352D01*
D02*
G37*
G36*
X376852Y306070D02*
X372110D01*
Y301328D01*
X374261Y302220D01*
X375961Y303919D01*
X376852Y306070D01*
D02*
G37*
G36*
X369570D02*
X364828D01*
X365719Y303919D01*
X367419Y302220D01*
X369570Y301328D01*
Y306070D01*
D02*
G37*
G36*
X400869Y314690D02*
X399071D01*
X397410Y314002D01*
X396138Y312730D01*
X395450Y311069D01*
Y309271D01*
X396138Y307610D01*
X397410Y306338D01*
X398190Y306015D01*
X397684Y303475D01*
X396240D01*
Y297140D01*
X407908D01*
X407816Y297838D01*
X407056Y299673D01*
X405848Y301248D01*
X404272Y302456D01*
X402438Y303216D01*
X401774Y303303D01*
X401482Y305904D01*
X402530Y306338D01*
X403802Y307610D01*
X404490Y309271D01*
Y311069D01*
X403802Y312730D01*
X402530Y314002D01*
X400869Y314690D01*
D02*
G37*
G36*
X443270Y303509D02*
X438040D01*
Y297140D01*
X448409D01*
Y298370D01*
X448018Y300336D01*
X446904Y302004D01*
X445237Y303118D01*
X443270Y303509D01*
D02*
G37*
G36*
X435500D02*
X430270D01*
X428303Y303118D01*
X426636Y302004D01*
X425522Y300336D01*
X425131Y298370D01*
Y297140D01*
X435500D01*
Y303509D01*
D02*
G37*
G36*
X393700Y303475D02*
X389470D01*
X387502Y303216D01*
X385667Y302456D01*
X384092Y301248D01*
X382884Y299673D01*
X382124Y297838D01*
X382032Y297140D01*
X393700D01*
Y303475D01*
D02*
G37*
%LPD*%
D11*
X342900Y416560D02*
Y417496D01*
X340360Y420036D02*
X342900Y417496D01*
X340360Y420036D02*
Y434340D01*
X369570Y328930D02*
X377190Y336550D01*
Y345440D01*
D21*
X350520Y401320D02*
Y401496D01*
X359410Y410386D01*
Y455930D01*
D23*
X399970Y310170D02*
D03*
Y367970D02*
D03*
Y483870D02*
D03*
Y541670D02*
D03*
X317470Y454330D02*
D03*
Y396530D02*
D03*
D24*
X394970Y382270D02*
D03*
Y295870D02*
D03*
Y555970D02*
D03*
Y469570D02*
D03*
X322470Y382230D02*
D03*
Y468630D02*
D03*
D25*
X436770Y382270D02*
D03*
Y295870D02*
D03*
Y555970D02*
D03*
Y469570D02*
D03*
X280670Y382230D02*
D03*
Y468630D02*
D03*
D26*
X342900Y416560D02*
D03*
X340360Y434340D02*
D03*
X369570Y328930D02*
D03*
X377190Y345440D02*
D03*
D27*
X370840Y307340D02*
D03*
X374650Y370840D02*
D03*
X370840Y542290D02*
D03*
X373380Y476250D02*
D03*
X346710Y462280D02*
D03*
X347980Y388620D02*
D03*
X350520Y401320D02*
D03*
X359410Y455930D02*
D03*
M02*
