G04*
G04 #@! TF.GenerationSoftware,Altium Limited,Altium Designer,25.6.2 (33)*
G04*
G04 Layer_Physical_Order=1*
G04 Layer_Color=255*
%FSLAX44Y44*%
%MOMM*%
G71*
G04*
G04 #@! TF.SameCoordinates,9BB86C1C-490A-4274-8EA7-9D778CBDAB0B*
G04*
G04*
G04 #@! TF.FilePolarity,Positive*
G04*
G01*
G75*
%ADD11C,0.2540*%
%ADD12R,1.1500X0.3000*%
%ADD13R,1.1500X0.6000*%
%ADD21C,0.6350*%
%ADD22C,0.7620*%
%ADD23C,0.6500*%
%ADD24O,2.1000X1.0000*%
G04:AMPARAMS|DCode=25|XSize=1.8mm|YSize=1mm|CornerRadius=0.25mm|HoleSize=0mm|Usage=FLASHONLY|Rotation=180.000|XOffset=0mm|YOffset=0mm|HoleType=Round|Shape=RoundedRectangle|*
%AMROUNDEDRECTD25*
21,1,1.8000,0.5000,0,0,180.0*
21,1,1.3000,1.0000,0,0,180.0*
1,1,0.5000,-0.6500,0.2500*
1,1,0.5000,0.6500,0.2500*
1,1,0.5000,0.6500,-0.2500*
1,1,0.5000,-0.6500,-0.2500*
%
%ADD25ROUNDEDRECTD25*%
%ADD26C,0.6000*%
%ADD27C,0.7000*%
D11*
X299720Y481330D02*
X348660Y530270D01*
X299720Y420370D02*
Y481330D01*
X348660Y530270D02*
X389220D01*
X304800Y444500D02*
Y477520D01*
X327550Y500270D01*
X389220D01*
X312160Y407930D02*
X328220D01*
X299720Y420370D02*
X312160Y407930D01*
X341630Y422700D02*
X342238Y422092D01*
Y417222D02*
Y422092D01*
Y417222D02*
X342900Y416560D01*
X339424Y434340D02*
X340360D01*
X338014Y432930D02*
X339424Y434340D01*
X328220Y432930D02*
X338014D01*
X360680Y345440D02*
X374550Y331570D01*
X341630Y422700D02*
X346920D01*
X373146Y331570D02*
X374550D01*
X370506Y328930D02*
X373146Y331570D01*
X369570Y328930D02*
X370506D01*
X377190Y345440D02*
X381060Y341570D01*
X389220D01*
X360680Y345440D02*
Y408940D01*
X328450Y422700D02*
X341630D01*
X328220Y427930D02*
X347078D01*
X364490Y347980D02*
Y410518D01*
X346920Y422700D02*
X360680Y408940D01*
X347078Y427930D02*
X364490Y410518D01*
Y347980D02*
X375900Y336570D01*
X328160Y427990D02*
X328220Y427930D01*
X404305Y534225D02*
Y534225D01*
X390950Y535040D02*
X403490D01*
X404305Y534225D01*
X389220Y488770D02*
X390110Y489660D01*
X402030D01*
X403860Y491490D01*
X389220Y536770D02*
X390950Y535040D01*
X304800Y444500D02*
X311370Y437930D01*
X328220D01*
X318670Y417930D02*
X328220D01*
X314960Y421640D02*
X318670Y417930D01*
X314960Y426502D02*
X316448Y427990D01*
X328160D01*
X314960Y421640D02*
Y426502D01*
X389220Y346570D02*
X389360Y346710D01*
X399832D01*
X401320Y345222D01*
Y338058D02*
Y345222D01*
X399832Y336570D02*
X401320Y338058D01*
X389220Y336570D02*
X399832D01*
X375900D02*
X389220D01*
X374550Y331570D02*
X389220D01*
X328220Y422930D02*
X328450Y422700D01*
D12*
X389220Y321570D02*
D03*
Y326570D02*
D03*
Y331570D02*
D03*
Y356570D02*
D03*
Y351570D02*
D03*
Y346570D02*
D03*
Y336570D02*
D03*
Y341570D02*
D03*
Y495270D02*
D03*
Y500270D02*
D03*
Y505270D02*
D03*
Y530270D02*
D03*
Y525270D02*
D03*
Y520270D02*
D03*
Y510270D02*
D03*
Y515270D02*
D03*
X328220Y442930D02*
D03*
Y437930D02*
D03*
Y432930D02*
D03*
Y407930D02*
D03*
Y412930D02*
D03*
Y417930D02*
D03*
Y427930D02*
D03*
Y422930D02*
D03*
D13*
X389220Y363070D02*
D03*
Y315070D02*
D03*
Y371070D02*
D03*
Y307070D02*
D03*
Y536770D02*
D03*
Y488770D02*
D03*
Y544770D02*
D03*
Y480770D02*
D03*
X328220Y401430D02*
D03*
Y449430D02*
D03*
Y393430D02*
D03*
Y457430D02*
D03*
D21*
X370840Y307340D02*
X371016D01*
X371286Y307070D01*
X389220D01*
X374650Y370840D02*
X374826D01*
X375056Y371070D01*
X389220D01*
X370840Y542290D02*
X371016D01*
X373496Y544770D01*
X389220D01*
X373380Y476250D02*
X373556D01*
X377901Y480595D01*
X389045D01*
X389220Y480770D01*
X341860Y457430D02*
X346710Y462280D01*
X328220Y457430D02*
X341860D01*
X343170Y393430D02*
X347980Y388620D01*
X328220Y393430D02*
X343170D01*
X328220Y401430D02*
X328275Y401375D01*
X350465D01*
X350520Y401320D01*
X359410Y455930D02*
Y478790D01*
X369390Y488770D01*
X389220D01*
X352910Y449430D02*
X359410Y455930D01*
X328220Y449430D02*
X352910D01*
D22*
X408940Y496570D02*
Y529590D01*
X404305Y534225D02*
X408940Y529590D01*
X403860Y491490D02*
X408940Y496570D01*
D23*
X399970Y310170D02*
D03*
Y367970D02*
D03*
Y483870D02*
D03*
Y541670D02*
D03*
X317470Y454330D02*
D03*
Y396530D02*
D03*
D24*
X394970Y382270D02*
D03*
Y295870D02*
D03*
Y555970D02*
D03*
Y469570D02*
D03*
X322470Y382230D02*
D03*
Y468630D02*
D03*
D25*
X436770Y382270D02*
D03*
Y295870D02*
D03*
Y555970D02*
D03*
Y469570D02*
D03*
X280670Y382230D02*
D03*
Y468630D02*
D03*
D26*
X342900Y416560D02*
D03*
X340360Y434340D02*
D03*
X369570Y328930D02*
D03*
X377190Y345440D02*
D03*
D27*
X370840Y307340D02*
D03*
X374650Y370840D02*
D03*
X370840Y542290D02*
D03*
X373380Y476250D02*
D03*
X346710Y462280D02*
D03*
X347980Y388620D02*
D03*
X350520Y401320D02*
D03*
X359410Y455930D02*
D03*
M02*
